{
  "accessors": [
    {
      "bufferView": 2,
      "componentType": 5126,
      "count": 24007,
      "max": [
        34.698265075683594,
        32.818859100341797,
        69.934196472167969
      ],
      "min": [
        -76.826545715332031,
        -0.21496379375457764,
        -18.338451385498047
      ],
      "type": "VEC3"
    },
    {
      "bufferView": 2,
      "byteOffset": 288084,
      "componentType": 5126,
      "count": 24007,
      "max": [
        0.99998974800109863,
        0.99999338388442993,
        0.999977707862854
      ],
      "min": [
        -0.9999271035194397,
        -0.99997931718826294,
        -0.99999439716339111
      ],
      "type": "VEC3"
    },
    {
      "bufferView": 3,
      "componentType": 5126,
      "count": 24007,
      "max": [
        0.99961692094802856,
        0.99998575448989868,
        0.99989521503448486,
        1
      ],
      "min": [
        -0.99990487098693848,
        -0.99997663497924805,
        -0.99991375207901001,
        -1
      ],
      "type": "VEC4"
    },
    {
      "bufferView": 1,
      "componentType": 5126,
      "count": 24007,
      "max": [
        0.99433749914169312,
        0.99431562423706055
      ],
      "min": [
        0.0032464032992720604,
        0.0039113163948059082
      ],
      "type": "VEC2"
    },
    {
      "bufferView": 1,
      "byteOffset": 192056,
      "componentType": 5126,
      "count": 24007,
      "max": [
        0.99433749914169312,
        0.99431562423706055
      ],
      "min": [
        0.0032464032992720604,
        0.0039113163948059082
      ],
      "type": "VEC2"
    },
    {
      "bufferView": 1,
      "byteOffset": 384112,
      "componentType": 5126,
      "count": 24007,
      "max": [
        0.99433749914169312,
        0.99431562423706055
      ],
      "min": [
        0.0032464032992720604,
        0.0039113163948059082
      ],
      "type": "VEC2"
    },
    {
      "bufferView": 0,
      "componentType": 5125,
      "count": 132942,
      "max": [
        24006
      ],
      "min": [
        0
      ],
      "type": "SCALAR"
    }
  ],
  "asset": {
    "extras": {
      "author": "damian (https://sketchfab.com/damienkane08)",
      "license": "CC-BY-4.0 (http://creativecommons.org/licenses/by/4.0/)",
      "source": "https://sketchfab.com/models/c47f7016d9fb42769bbf270884e013c9",
      "title": "Komodo Dragon"
    },
    "generator": "Sketchfab-3.45.3",
    "version": "2.0"
  },
  "bufferViews": [
    {
      "buffer": 0,
      "byteLength": 531768,
      "byteOffset": 0,
      "name": "floatBufferViews",
      "target": 34963
    },
    {
      "buffer": 0,
      "byteLength": 576168,
      "byteOffset": 531768,
      "byteStride": 8,
      "name": "floatBufferViews",
      "target": 34962
    },
    {
      "buffer": 0,
      "byteLength": 576168,
      "byteOffset": 1107936,
      "byteStride": 12,
      "name": "floatBufferViews",
      "target": 34962
    },
    {
      "buffer": 0,
      "byteLength": 384112,
      "byteOffset": 1684104,
      "byteStride": 16,
      "name": "floatBufferViews",
      "target": 34962
    }
  ],
  "buffers": [
    {
      "byteLength": 2068216,
      "uri": "scene.bin"
    }
  ],
  "extensionsRequired": [
    "KHR_materials_pbrSpecularGlossiness"
  ],
  "extensionsUsed": [
    "KHR_materials_pbrSpecularGlossiness"
  ],
  "images": [
    {
      "uri": "textures/material_specularGlossiness.png"
    },
    {
      "uri": "textures/material_diffuse.png"
    }
  ],
  "materials": [
    {
      "alphaCutoff": 0,
      "alphaMode": "MASK",
      "doubleSided": true,
      "emissiveFactor": [
        0,
        0,
        0
      ],
      "extensions": {
        "KHR_materials_pbrSpecularGlossiness": {
          "diffuseFactor": [
            1,
            1,
            1,
            1
          ],
          "diffuseTexture": {
            "index": 1,
            "texCoord": 0
          },
          "glossinessFactor": 1,
          "specularFactor": [
            1,
            1,
            1
          ],
          "specularGlossinessTexture": {
            "index": 0,
            "texCoord": 0
          }
        }
      },
      "name": "material"
    }
  ],
  "meshes": [
    {
      "primitives": [
        {
          "attributes": {
            "NORMAL": 1,
            "POSITION": 0,
            "TANGENT": 2,
            "TEXCOORD_0": 3,
            "TEXCOORD_1": 4,
            "TEXCOORD_2": 5
          },
          "indices": 6,
          "material": 0,
          "mode": 4
        }
      ]
    }
  ],
  "nodes": [
    {
      "children": [
        1
      ],
      "name": "RootNode (gltf orientation matrix)",
      "rotation": [
        -0.70710678118654746,
        -0,
        -0,
        0.70710678118654757
      ]
    },
    {
      "children": [
        2
      ],
      "name": "RootNode (model correction matrix)"
    },
    {
      "children": [
        3
      ],
      "name": "root"
    },
    {
      "children": [
        4
      ],
      "matrix": [
        1,
        0,
        0,
        0,
        0,
        2.2204460492503131e-16,
        1,
        0,
        0,
        -1,
        2.2204460492503131e-16,
        0,
        0,
        0,
        0,
        1
      ],
      "name": "GLTF_SceneRootNode"
    },
    {
      "children": [
        5
      ],
      "name": "root_0"
    },
    {
      "children": [
        6
      ],
      "matrix": [
        0.0045909066684544086,
        0,
        0,
        0,
        0,
        0.0045909066684544086,
        0,
        0,
        0,
        0,
        0.0045909066684544086,
        0,
        0.096703492105007172,
        -0.074840672314167023,
        0.4527336061000824,
        1
      ],
      "name": "node_id131_1"
    },
    {
      "mesh": 0,
      "name": ""
    }
  ],
  "samplers": [
    {
      "magFilter": 9729,
      "minFilter": 9987,
      "wrapS": 10497,
      "wrapT": 10497
    }
  ],
  "scene": 0,
  "scenes": [
    {
      "name": "OSG_Scene",
      "nodes": [
        0
      ]
    }
  ],
  "textures": [
    {
      "sampler": 0,
      "source": 0
    },
    {
      "sampler": 0,
      "source": 1
    }
  ]
}

